<svg xmlns="http://www.w3.org/2000/svg" version="1.1" id="diagramSVG" viewBox="0 0 500 500"><rect x="110" y="30" width="65" height="352" fill="none" stroke-width="2" stroke="black"></rect><text x="142" y="206" transform="rotate(-90 142 206)" alignment-baseline="central" text-anchor="middle" font-family="monospace"><tspan x="142" dy="0.5em">V16alpha</tspan></text><path d="M135 30A 7 7 0 0 0 149 30" stroke="black" fill="black" fill-opacity="0" stroke-width="2"></path><text x="156" y="46" font-family="monospace" fill="green">32</text><polygon points="180 36 180 46 175 41" fill="green"></polygon><line x1="180" y1="41" x2="185" y2="41" stroke="green" stroke-width="2"></line><polygon points="185 36 185 46 190 41" fill="green"></polygon><text x="191" y="48" transform="rotate(0 191 48)" font-family="monospace" fill="green"> I/O<tspan dy="5">A</tspan></text><text x="156" y="68" font-family="monospace" fill="green">31</text><polygon points="180 58 180 68 175 63" fill="green"></polygon><line x1="180" y1="63" x2="185" y2="63" stroke="green" stroke-width="2"></line><polygon points="185 58 185 68 190 63" fill="green"></polygon><text x="191" y="70" transform="rotate(0 191 70)" font-family="monospace" fill="green"> I/O<tspan dy="5">A</tspan></text><text x="156" y="90" font-family="monospace" fill="green">30</text><polygon points="180 80 180 90 175 85" fill="green"></polygon><line x1="180" y1="85" x2="185" y2="85" stroke="green" stroke-width="2"></line><polygon points="185 80 185 90 190 85" fill="green"></polygon><text x="191" y="92" transform="rotate(0 191 92)" font-family="monospace" fill="green"> I/O<tspan dy="5">A</tspan></text><text x="156" y="112" font-family="monospace" fill="green">29</text><polygon points="180 102 180 112 175 107" fill="green"></polygon><line x1="180" y1="107" x2="185" y2="107" stroke="green" stroke-width="2"></line><polygon points="185 102 185 112 190 107" fill="green"></polygon><text x="191" y="114" transform="rotate(0 191 114)" font-family="monospace" fill="green"> I/O<tspan dy="5">A</tspan></text><text x="156" y="134" font-family="monospace" fill="green">28</text><polygon points="180 124 180 134 175 129" fill="green"></polygon><line x1="180" y1="129" x2="185" y2="129" stroke="green" stroke-width="2"></line><polygon points="185 124 185 134 190 129" fill="green"></polygon><text x="191" y="136" transform="rotate(0 191 136)" font-family="monospace" fill="green"> I/O<tspan dy="5">A</tspan></text><text x="156" y="156" font-family="monospace" fill="green">27</text><polygon points="180 146 180 156 175 151" fill="green"></polygon><line x1="180" y1="151" x2="185" y2="151" stroke="green" stroke-width="2"></line><polygon points="185 146 185 156 190 151" fill="green"></polygon><text x="191" y="158" transform="rotate(0 191 158)" font-family="monospace" fill="green"> I/O<tspan dy="5">A</tspan></text><text x="156" y="178" font-family="monospace" fill="green">26</text><polygon points="180 168 180 178 175 173" fill="green"></polygon><line x1="180" y1="173" x2="185" y2="173" stroke="green" stroke-width="2"></line><polygon points="185 168 185 178 190 173" fill="green"></polygon><text x="191" y="180" transform="rotate(0 191 180)" font-family="monospace" fill="green"> I/O<tspan dy="5">A</tspan></text><text x="156" y="200" font-family="monospace" fill="green">25</text><polygon points="180 190 180 200 175 195" fill="green"></polygon><line x1="180" y1="195" x2="185" y2="195" stroke="green" stroke-width="2"></line><polygon points="185 190 185 200 190 195" fill="green"></polygon><text x="191" y="202" transform="rotate(0 191 202)" font-family="monospace" fill="green"> I/O<tspan dy="5">A</tspan></text><text x="156" y="222" font-family="monospace" fill="green">24</text><polygon points="180 212 180 222 175 217" fill="green"></polygon><line x1="180" y1="217" x2="185" y2="217" stroke="green" stroke-width="2"></line><polygon points="185 212 185 222 190 217" fill="green"></polygon><text x="191" y="224" transform="rotate(0 191 224)" font-family="monospace" fill="green"> I/O<tspan dy="5">A</tspan></text><text x="156" y="244" font-family="monospace" fill="green">23</text><polygon points="180 234 180 244 175 239" fill="green"></polygon><line x1="180" y1="239" x2="185" y2="239" stroke="green" stroke-width="2"></line><polygon points="185 234 185 244 190 239" fill="green"></polygon><text x="191" y="246" transform="rotate(0 191 246)" font-family="monospace" fill="green"> I/O<tspan dy="5">A</tspan></text><text x="156" y="266" font-family="monospace" fill="green">22</text><polygon points="180 256 180 266 175 261" fill="green"></polygon><line x1="180" y1="261" x2="185" y2="261" stroke="green" stroke-width="2"></line><polygon points="185 256 185 266 190 261" fill="green"></polygon><text x="191" y="268" transform="rotate(0 191 268)" font-family="monospace" fill="green"> I/O<tspan dy="5">A</tspan></text><text x="156" y="288" font-family="monospace" fill="green">21</text><polygon points="180 278 180 288 175 283" fill="green"></polygon><line x1="180" y1="283" x2="185" y2="283" stroke="green" stroke-width="2"></line><polygon points="185 278 185 288 190 283" fill="green"></polygon><text x="191" y="290" transform="rotate(0 191 290)" font-family="monospace" fill="green"> I/O<tspan dy="5">A</tspan></text><text x="156" y="310" font-family="monospace" fill="green">20</text><polygon points="180 300 180 310 175 305" fill="green"></polygon><line x1="180" y1="305" x2="185" y2="305" stroke="green" stroke-width="2"></line><polygon points="185 300 185 310 190 305" fill="green"></polygon><text x="191" y="312" transform="rotate(0 191 312)" font-family="monospace" fill="green"> I/O<tspan dy="5">A</tspan></text><text x="156" y="332" font-family="monospace" fill="green">19</text><polygon points="180 322 180 332 175 327" fill="green"></polygon><line x1="180" y1="327" x2="185" y2="327" stroke="green" stroke-width="2"></line><polygon points="185 322 185 332 190 327" fill="green"></polygon><text x="191" y="334" transform="rotate(0 191 334)" font-family="monospace" fill="green"> I/O<tspan dy="5">A</tspan></text><text x="156" y="354" font-family="monospace" fill="green">18</text><polygon points="180 344 180 354 175 349" fill="green"></polygon><line x1="180" y1="349" x2="185" y2="349" stroke="green" stroke-width="2"></line><polygon points="185 344 185 354 190 349" fill="green"></polygon><text x="191" y="356" transform="rotate(0 191 356)" font-family="monospace" fill="green"> I/O<tspan dy="5">A</tspan></text><text x="156" y="376" font-family="monospace" fill="green">17</text><polygon points="180 366 180 376 175 371" fill="green"></polygon><line x1="180" y1="371" x2="185" y2="371" stroke="green" stroke-width="2"></line><polygon points="185 366 185 376 190 371" fill="green"></polygon><text x="191" y="378" transform="rotate(0 191 378)" font-family="monospace" fill="green"> I/O<tspan dy="5">A</tspan></text><text x="113" y="46" font-family="monospace" fill="black">1</text><polygon points="105 36 105 46 110 41" fill="black"></polygon><line x1="105" y1="41" x2="100" y2="41" stroke="black" stroke-width="2"></line><text x="99" y="48" transform="rotate(0 99 48)" font-family="monospace" fill="black" text-anchor="end"> Clock</text><text x="113" y="68" font-family="monospace" fill="red">2</text><line x1="110" y1="63" x2="105" y2="63" stroke="red" stroke-width="2"></line><polygon points="105 58 105 68 100 63" fill="red"></polygon><text x="99" y="70" transform="rotate(0 99 70)" font-family="monospace" fill="red" text-anchor="end"> Error</text><text x="113" y="90" font-family="monospace" fill="red">3</text><line x1="110" y1="85" x2="105" y2="85" stroke="red" stroke-width="2"></line><polygon points="105 80 105 90 100 85" fill="red"></polygon><text x="99" y="92" transform="rotate(0 99 92)" font-family="monospace" fill="red" text-anchor="end"> Error</text><text x="113" y="112" font-family="monospace" fill="red">4</text><line x1="110" y1="107" x2="105" y2="107" stroke="red" stroke-width="2"></line><polygon points="105 102 105 112 100 107" fill="red"></polygon><text x="99" y="114" transform="rotate(0 99 114)" font-family="monospace" fill="red" text-anchor="end"> Error</text><text x="113" y="134" font-family="monospace" fill="red">5</text><line x1="110" y1="129" x2="105" y2="129" stroke="red" stroke-width="2"></line><polygon points="105 124 105 134 100 129" fill="red"></polygon><text x="99" y="136" transform="rotate(0 99 136)" font-family="monospace" fill="red" text-anchor="end"> Error</text><text x="113" y="156" font-family="monospace" fill="black">6</text><polygon points="105 146 105 156 110 151" fill="black"></polygon><line x1="105" y1="151" x2="100" y2="151" stroke="black" stroke-width="2"></line><text x="99" y="158" transform="rotate(0 99 158)" font-family="monospace" fill="black" text-anchor="end"> Prog load</text><text x="113" y="178" font-family="monospace" fill="black">7</text><polygon points="105 168 105 178 110 173" fill="black"></polygon><line x1="105" y1="173" x2="100" y2="173" stroke="black" stroke-width="2"></line><text x="99" y="180" transform="rotate(0 99 180)" font-family="monospace" fill="black" text-anchor="end"> Prog ctrl</text><text x="113" y="200" font-family="monospace" fill="black">8</text><polygon points="105 190 105 200 110 195" fill="black"></polygon><line x1="105" y1="195" x2="100" y2="195" stroke="black" stroke-width="2"></line><text x="99" y="202" transform="rotate(0 99 202)" font-family="monospace" fill="black" text-anchor="end"> Prog ctrl</text><text x="113" y="222" font-family="monospace" fill="blue">9</text><polygon points="105 212 105 222 110 217" fill="blue"></polygon><line x1="105" y1="217" x2="100" y2="217" stroke="blue" stroke-width="2"></line><polygon points="100 212 100 222 95 217" fill="blue"></polygon><text x="94" y="224" transform="rotate(0 94 224)" font-family="monospace" fill="blue" text-anchor="end"> I/O<tspan dy="5">B</tspan></text><text x="113" y="244" font-family="monospace" fill="blue">10</text><polygon points="105 234 105 244 110 239" fill="blue"></polygon><line x1="105" y1="239" x2="100" y2="239" stroke="blue" stroke-width="2"></line><polygon points="100 234 100 244 95 239" fill="blue"></polygon><text x="94" y="246" transform="rotate(0 94 246)" font-family="monospace" fill="blue" text-anchor="end"> I/O<tspan dy="5">B</tspan></text><text x="113" y="266" font-family="monospace" fill="blue">11</text><polygon points="105 256 105 266 110 261" fill="blue"></polygon><line x1="105" y1="261" x2="100" y2="261" stroke="blue" stroke-width="2"></line><polygon points="100 256 100 266 95 261" fill="blue"></polygon><text x="94" y="268" transform="rotate(0 94 268)" font-family="monospace" fill="blue" text-anchor="end"> I/O<tspan dy="5">B</tspan></text><text x="113" y="288" font-family="monospace" fill="blue">12</text><polygon points="105 278 105 288 110 283" fill="blue"></polygon><line x1="105" y1="283" x2="100" y2="283" stroke="blue" stroke-width="2"></line><polygon points="100 278 100 288 95 283" fill="blue"></polygon><text x="94" y="290" transform="rotate(0 94 290)" font-family="monospace" fill="blue" text-anchor="end"> I/O<tspan dy="5">B</tspan></text><text x="113" y="310" font-family="monospace" fill="blue">13</text><polygon points="105 300 105 310 110 305" fill="blue"></polygon><line x1="105" y1="305" x2="100" y2="305" stroke="blue" stroke-width="2"></line><polygon points="100 300 100 310 95 305" fill="blue"></polygon><text x="94" y="312" transform="rotate(0 94 312)" font-family="monospace" fill="blue" text-anchor="end"> I/O<tspan dy="5">B</tspan></text><text x="113" y="332" font-family="monospace" fill="blue">14</text><polygon points="105 322 105 332 110 327" fill="blue"></polygon><line x1="105" y1="327" x2="100" y2="327" stroke="blue" stroke-width="2"></line><polygon points="100 322 100 332 95 327" fill="blue"></polygon><text x="94" y="334" transform="rotate(0 94 334)" font-family="monospace" fill="blue" text-anchor="end"> I/O<tspan dy="5">B</tspan></text><text x="113" y="354" font-family="monospace" fill="blue">15</text><polygon points="105 344 105 354 110 349" fill="blue"></polygon><line x1="105" y1="349" x2="100" y2="349" stroke="blue" stroke-width="2"></line><polygon points="100 344 100 354 95 349" fill="blue"></polygon><text x="94" y="356" transform="rotate(0 94 356)" font-family="monospace" fill="blue" text-anchor="end"> I/O<tspan dy="5">B</tspan></text><text x="113" y="376" font-family="monospace" fill="blue">16</text><polygon points="105 366 105 376 110 371" fill="blue"></polygon><line x1="105" y1="371" x2="100" y2="371" stroke="blue" stroke-width="2"></line><polygon points="100 366 100 376 95 371" fill="blue"></polygon><text x="94" y="378" transform="rotate(0 94 378)" font-family="monospace" fill="blue" text-anchor="end"> I/O<tspan dy="5">B</tspan></text></svg>