<?xml version="1.0" encoding="UTF-8" standalone="no"?>
<svg
   xmlns:dc="http://purl.org/dc/elements/1.1/"
   xmlns:cc="http://creativecommons.org/ns#"
   xmlns:rdf="http://www.w3.org/1999/02/22-rdf-syntax-ns#"
   xmlns:svg="http://www.w3.org/2000/svg"
   xmlns="http://www.w3.org/2000/svg"
   xmlns:sodipodi="http://sodipodi.sourceforge.net/DTD/sodipodi-0.dtd"
   xmlns:inkscape="http://www.inkscape.org/namespaces/inkscape"
   version="1.1"
   id="diagramSVG"
   viewBox="0 0 184.47852 354"
   sodipodi:docname="v16alpha_pinout.svg"
   width="184.47852"
   height="354"
   inkscape:version="0.92.3 (2405546, 2018-03-11)">
  <metadata
     id="metadata367">
    <rdf:RDF>
      <cc:Work
         rdf:about="">
        <dc:format>image/svg+xml</dc:format>
        <dc:type
           rdf:resource="http://purl.org/dc/dcmitype/StillImage" />
      </cc:Work>
    </rdf:RDF>
  </metadata>
  <defs
     id="defs365" />
  <sodipodi:namedview
     pagecolor="#ffffff"
     bordercolor="#666666"
     borderopacity="1"
     objecttolerance="10"
     gridtolerance="10"
     guidetolerance="10"
     inkscape:pageopacity="0"
     inkscape:pageshadow="2"
     inkscape:window-width="1366"
     inkscape:window-height="706"
     id="namedview363"
     showgrid="false"
     inkscape:zoom="0.944"
     inkscape:cx="277.20237"
     inkscape:cy="141.74597"
     inkscape:window-x="-8"
     inkscape:window-y="-8"
     inkscape:window-maximized="1"
     inkscape:current-layer="diagramSVG" />
  <rect
     x="74.814453"
     y="1"
     width="65"
     height="352"
     id="rect2"
     style="fill:none;stroke:#000000;stroke-width:2" />
  <text
     x="-177"
     y="106.81445"
     transform="rotate(-90)"
     alignment-baseline="central"
     id="text6"
     style="font-family:monospace;text-anchor:middle">
    <tspan
       x="-177"
       dy="6"
       id="tspan4">V16alpha</tspan>
  </text>
  <path
     d="M 99.814453,1 A 7,7 0 0 0 113.81445,1"
     id="path8"
     inkscape:connector-curvature="0"
     style="fill:#000000;fill-opacity:0;stroke:#000000;stroke-width:2" />
  <text
     x="120.81445"
     y="17"
     id="text10"
     style="font-family:monospace;fill:#008000">32</text>
  <polygon
     points="175,41 180,36 180,46 "
     id="polygon12"
     style="fill:#008000"
     transform="translate(-35.185547,-29)" />
  <line
     x1="144.81445"
     y1="12"
     x2="149.81445"
     y2="12"
     id="line14"
     style="stroke:#008000;stroke-width:2" />
  <polygon
     points="190,41 185,36 185,46 "
     id="polygon16"
     style="fill:#008000"
     transform="translate(-35.185547,-29)" />
  <text
     x="155.81445"
     y="19"
     id="text20"
     style="font-family:monospace;fill:#008000">I/O<tspan
   dy="5"
   id="tspan18">A</tspan>
</text>
  <text
     x="120.81445"
     y="39"
     id="text22"
     style="font-family:monospace;fill:#008000">31</text>
  <polygon
     points="175,63 180,58 180,68 "
     id="polygon24"
     style="fill:#008000"
     transform="translate(-35.185547,-29)" />
  <line
     x1="144.81445"
     y1="34"
     x2="149.81445"
     y2="34"
     id="line26"
     style="stroke:#008000;stroke-width:2" />
  <polygon
     points="190,63 185,58 185,68 "
     id="polygon28"
     style="fill:#008000"
     transform="translate(-35.185547,-29)" />
  <text
     x="155.81445"
     y="41"
     id="text32"
     style="font-family:monospace;fill:#008000">I/O<tspan
   dy="5"
   id="tspan30">A</tspan>
</text>
  <text
     x="120.81445"
     y="61"
     id="text34"
     style="font-family:monospace;fill:#008000">30</text>
  <polygon
     points="175,85 180,80 180,90 "
     id="polygon36"
     style="fill:#008000"
     transform="translate(-35.185547,-29)" />
  <line
     x1="144.81445"
     y1="56"
     x2="149.81445"
     y2="56"
     id="line38"
     style="stroke:#008000;stroke-width:2" />
  <polygon
     points="190,85 185,80 185,90 "
     id="polygon40"
     style="fill:#008000"
     transform="translate(-35.185547,-29)" />
  <text
     x="155.81445"
     y="63"
     id="text44"
     style="font-family:monospace;fill:#008000">I/O<tspan
   dy="5"
   id="tspan42">A</tspan>
</text>
  <text
     x="120.81445"
     y="83"
     id="text46"
     style="font-family:monospace;fill:#008000">29</text>
  <polygon
     points="175,107 180,102 180,112 "
     id="polygon48"
     style="fill:#008000"
     transform="translate(-35.185547,-29)" />
  <line
     x1="144.81445"
     y1="78"
     x2="149.81445"
     y2="78"
     id="line50"
     style="stroke:#008000;stroke-width:2" />
  <polygon
     points="190,107 185,102 185,112 "
     id="polygon52"
     style="fill:#008000"
     transform="translate(-35.185547,-29)" />
  <text
     x="155.81445"
     y="85"
     id="text56"
     style="font-family:monospace;fill:#008000">I/O<tspan
   dy="5"
   id="tspan54">A</tspan>
</text>
  <text
     x="120.81445"
     y="105"
     id="text58"
     style="font-family:monospace;fill:#008000">28</text>
  <polygon
     points="175,129 180,124 180,134 "
     id="polygon60"
     style="fill:#008000"
     transform="translate(-35.185547,-29)" />
  <line
     x1="144.81445"
     y1="100"
     x2="149.81445"
     y2="100"
     id="line62"
     style="stroke:#008000;stroke-width:2" />
  <polygon
     points="190,129 185,124 185,134 "
     id="polygon64"
     style="fill:#008000"
     transform="translate(-35.185547,-29)" />
  <text
     x="155.81445"
     y="107"
     id="text68"
     style="font-family:monospace;fill:#008000">I/O<tspan
   dy="5"
   id="tspan66">A</tspan>
</text>
  <text
     x="120.81445"
     y="127"
     id="text70"
     style="font-family:monospace;fill:#008000">27</text>
  <polygon
     points="175,151 180,146 180,156 "
     id="polygon72"
     style="fill:#008000"
     transform="translate(-35.185547,-29)" />
  <line
     x1="144.81445"
     y1="122"
     x2="149.81445"
     y2="122"
     id="line74"
     style="stroke:#008000;stroke-width:2" />
  <polygon
     points="190,151 185,146 185,156 "
     id="polygon76"
     style="fill:#008000"
     transform="translate(-35.185547,-29)" />
  <text
     x="155.81445"
     y="129"
     id="text80"
     style="font-family:monospace;fill:#008000">I/O<tspan
   dy="5"
   id="tspan78">A</tspan>
</text>
  <text
     x="120.81445"
     y="149"
     id="text82"
     style="font-family:monospace;fill:#008000">26</text>
  <polygon
     points="175,173 180,168 180,178 "
     id="polygon84"
     style="fill:#008000"
     transform="translate(-35.185547,-29)" />
  <line
     x1="144.81445"
     y1="144"
     x2="149.81445"
     y2="144"
     id="line86"
     style="stroke:#008000;stroke-width:2" />
  <polygon
     points="190,173 185,168 185,178 "
     id="polygon88"
     style="fill:#008000"
     transform="translate(-35.185547,-29)" />
  <text
     x="155.81445"
     y="151"
     id="text92"
     style="font-family:monospace;fill:#008000">I/O<tspan
   dy="5"
   id="tspan90">A</tspan>
</text>
  <text
     x="120.81445"
     y="171"
     id="text94"
     style="font-family:monospace;fill:#008000">25</text>
  <polygon
     points="175,195 180,190 180,200 "
     id="polygon96"
     style="fill:#008000"
     transform="translate(-35.185547,-29)" />
  <line
     x1="144.81445"
     y1="166"
     x2="149.81445"
     y2="166"
     id="line98"
     style="stroke:#008000;stroke-width:2" />
  <polygon
     points="190,195 185,190 185,200 "
     id="polygon100"
     style="fill:#008000"
     transform="translate(-35.185547,-29)" />
  <text
     x="155.81445"
     y="173"
     id="text104"
     style="font-family:monospace;fill:#008000">I/O<tspan
   dy="5"
   id="tspan102">A</tspan>
</text>
  <text
     x="120.81445"
     y="193"
     id="text106"
     style="font-family:monospace;fill:#008000">24</text>
  <polygon
     points="175,217 180,212 180,222 "
     id="polygon108"
     style="fill:#008000"
     transform="translate(-35.185547,-29)" />
  <line
     x1="144.81445"
     y1="188"
     x2="149.81445"
     y2="188"
     id="line110"
     style="stroke:#008000;stroke-width:2" />
  <polygon
     points="190,217 185,212 185,222 "
     id="polygon112"
     style="fill:#008000"
     transform="translate(-35.185547,-29)" />
  <text
     x="155.81445"
     y="195"
     id="text116"
     style="font-family:monospace;fill:#008000">I/O<tspan
   dy="5"
   id="tspan114">A</tspan>
</text>
  <text
     x="120.81445"
     y="215"
     id="text118"
     style="font-family:monospace;fill:#008000">23</text>
  <polygon
     points="175,239 180,234 180,244 "
     id="polygon120"
     style="fill:#008000"
     transform="translate(-35.185547,-29)" />
  <line
     x1="144.81445"
     y1="210"
     x2="149.81445"
     y2="210"
     id="line122"
     style="stroke:#008000;stroke-width:2" />
  <polygon
     points="190,239 185,234 185,244 "
     id="polygon124"
     style="fill:#008000"
     transform="translate(-35.185547,-29)" />
  <text
     x="155.81445"
     y="217"
     id="text128"
     style="font-family:monospace;fill:#008000">I/O<tspan
   dy="5"
   id="tspan126">A</tspan>
</text>
  <text
     x="120.81445"
     y="237"
     id="text130"
     style="font-family:monospace;fill:#008000">22</text>
  <polygon
     points="175,261 180,256 180,266 "
     id="polygon132"
     style="fill:#008000"
     transform="translate(-35.185547,-29)" />
  <line
     x1="144.81445"
     y1="232"
     x2="149.81445"
     y2="232"
     id="line134"
     style="stroke:#008000;stroke-width:2" />
  <polygon
     points="190,261 185,256 185,266 "
     id="polygon136"
     style="fill:#008000"
     transform="translate(-35.185547,-29)" />
  <text
     x="155.81445"
     y="239"
     id="text140"
     style="font-family:monospace;fill:#008000">I/O<tspan
   dy="5"
   id="tspan138">A</tspan>
</text>
  <text
     x="120.81445"
     y="259"
     id="text142"
     style="font-family:monospace;fill:#008000">21</text>
  <polygon
     points="175,283 180,278 180,288 "
     id="polygon144"
     style="fill:#008000"
     transform="translate(-35.185547,-29)" />
  <line
     x1="144.81445"
     y1="254"
     x2="149.81445"
     y2="254"
     id="line146"
     style="stroke:#008000;stroke-width:2" />
  <polygon
     points="190,283 185,278 185,288 "
     id="polygon148"
     style="fill:#008000"
     transform="translate(-35.185547,-29)" />
  <text
     x="155.81445"
     y="261"
     id="text152"
     style="font-family:monospace;fill:#008000">I/O<tspan
   dy="5"
   id="tspan150">A</tspan>
</text>
  <text
     x="120.81445"
     y="281"
     id="text154"
     style="font-family:monospace;fill:#008000">20</text>
  <polygon
     points="175,305 180,300 180,310 "
     id="polygon156"
     style="fill:#008000"
     transform="translate(-35.185547,-29)" />
  <line
     x1="144.81445"
     y1="276"
     x2="149.81445"
     y2="276"
     id="line158"
     style="stroke:#008000;stroke-width:2" />
  <polygon
     points="190,305 185,300 185,310 "
     id="polygon160"
     style="fill:#008000"
     transform="translate(-35.185547,-29)" />
  <text
     x="155.81445"
     y="283"
     id="text164"
     style="font-family:monospace;fill:#008000">I/O<tspan
   dy="5"
   id="tspan162">A</tspan>
</text>
  <text
     x="120.81445"
     y="303"
     id="text166"
     style="font-family:monospace;fill:#008000">19</text>
  <polygon
     points="175,327 180,322 180,332 "
     id="polygon168"
     style="fill:#008000"
     transform="translate(-35.185547,-29)" />
  <line
     x1="144.81445"
     y1="298"
     x2="149.81445"
     y2="298"
     id="line170"
     style="stroke:#008000;stroke-width:2" />
  <polygon
     points="190,327 185,322 185,332 "
     id="polygon172"
     style="fill:#008000"
     transform="translate(-35.185547,-29)" />
  <text
     x="155.81445"
     y="305"
     id="text176"
     style="font-family:monospace;fill:#008000">I/O<tspan
   dy="5"
   id="tspan174">A</tspan>
</text>
  <text
     x="120.81445"
     y="325"
     id="text178"
     style="font-family:monospace;fill:#008000">18</text>
  <polygon
     points="175,349 180,344 180,354 "
     id="polygon180"
     style="fill:#008000"
     transform="translate(-35.185547,-29)" />
  <line
     x1="144.81445"
     y1="320"
     x2="149.81445"
     y2="320"
     id="line182"
     style="stroke:#008000;stroke-width:2" />
  <polygon
     points="190,349 185,344 185,354 "
     id="polygon184"
     style="fill:#008000"
     transform="translate(-35.185547,-29)" />
  <text
     x="155.81445"
     y="327"
     id="text188"
     style="font-family:monospace;fill:#008000">I/O<tspan
   dy="5"
   id="tspan186">A</tspan>
</text>
  <text
     x="120.81445"
     y="347"
     id="text190"
     style="font-family:monospace;fill:#008000">17</text>
  <polygon
     points="175,371 180,366 180,376 "
     id="polygon192"
     style="fill:#008000"
     transform="translate(-35.185547,-29)" />
  <line
     x1="144.81445"
     y1="342"
     x2="149.81445"
     y2="342"
     id="line194"
     style="stroke:#008000;stroke-width:2" />
  <polygon
     points="190,371 185,366 185,376 "
     id="polygon196"
     style="fill:#008000"
     transform="translate(-35.185547,-29)" />
  <text
     x="155.81445"
     y="349"
     id="text200"
     style="font-family:monospace;fill:#008000">I/O<tspan
   dy="5"
   id="tspan198">A</tspan>
</text>
  <text
     x="77.814453"
     y="17"
     id="text202"
     style="font-family:monospace;fill:#000000">1</text>
  <polygon
     points="110,41 105,36 105,46 "
     id="polygon204"
     style="fill:#000000"
     transform="translate(-35.185547,-29)" />
  <line
     x1="69.814453"
     y1="12"
     x2="64.814453"
     y2="12"
     id="line206"
     style="stroke:#000000;stroke-width:2" />
  <text
     x="63.814453"
     y="19"
     id="text208"
     style="font-family:monospace;text-anchor:end;fill:#000000">Clock</text>
  <text
     x="77.814453"
     y="39"
     id="text210"
     style="font-family:monospace;fill:#ff0000">2</text>
  <line
     x1="74.814453"
     y1="34"
     x2="69.814453"
     y2="34"
     id="line212"
     style="stroke:#ff0000;stroke-width:2" />
  <polygon
     points="100,63 105,58 105,68 "
     id="polygon214"
     style="fill:#ff0000"
     transform="translate(-35.185547,-29)" />
  <text
     x="63.814453"
     y="41"
     id="text216"
     style="font-family:monospace;text-anchor:end;fill:#ff0000">Error</text>
  <text
     x="77.814453"
     y="61"
     id="text218"
     style="font-family:monospace;fill:#ff0000">3</text>
  <line
     x1="74.814453"
     y1="56"
     x2="69.814453"
     y2="56"
     id="line220"
     style="stroke:#ff0000;stroke-width:2" />
  <polygon
     points="100,85 105,80 105,90 "
     id="polygon222"
     style="fill:#ff0000"
     transform="translate(-35.185547,-29)" />
  <text
     x="63.814453"
     y="63"
     id="text224"
     style="font-family:monospace;text-anchor:end;fill:#ff0000">Error</text>
  <text
     x="77.814453"
     y="83"
     id="text226"
     style="font-family:monospace;fill:#ff0000">4</text>
  <line
     x1="74.814453"
     y1="78"
     x2="69.814453"
     y2="78"
     id="line228"
     style="stroke:#ff0000;stroke-width:2" />
  <polygon
     points="100,107 105,102 105,112 "
     id="polygon230"
     style="fill:#ff0000"
     transform="translate(-35.185547,-29)" />
  <text
     x="63.814453"
     y="85"
     id="text232"
     style="font-family:monospace;text-anchor:end;fill:#ff0000">Error</text>
  <text
     x="77.814453"
     y="105"
     id="text234"
     style="font-family:monospace;fill:#ff0000">5</text>
  <line
     x1="74.814453"
     y1="100"
     x2="69.814453"
     y2="100"
     id="line236"
     style="stroke:#ff0000;stroke-width:2" />
  <polygon
     points="100,129 105,124 105,134 "
     id="polygon238"
     style="fill:#ff0000"
     transform="translate(-35.185547,-29)" />
  <text
     x="63.814453"
     y="107"
     id="text240"
     style="font-family:monospace;text-anchor:end;fill:#ff0000">Error</text>
  <text
     x="77.814453"
     y="127"
     id="text242"
     style="font-family:monospace;fill:#000000">6</text>
  <polygon
     points="110,151 105,146 105,156 "
     id="polygon244"
     style="fill:#000000"
     transform="translate(-35.185547,-29)" />
  <line
     x1="69.814453"
     y1="122"
     x2="64.814453"
     y2="122"
     id="line246"
     style="stroke:#000000;stroke-width:2" />
  <text
     x="63.814453"
     y="129"
     id="text248"
     style="font-family:monospace;text-anchor:end;fill:#000000">Prog load</text>
  <text
     x="77.814453"
     y="149"
     id="text250"
     style="font-family:monospace;fill:#000000">7</text>
  <polygon
     points="110,173 105,168 105,178 "
     id="polygon252"
     style="fill:#000000"
     transform="translate(-35.185547,-29)" />
  <line
     x1="69.814453"
     y1="144"
     x2="64.814453"
     y2="144"
     id="line254"
     style="stroke:#000000;stroke-width:2" />
  <text
     x="63.814453"
     y="151"
     id="text256"
     style="font-family:monospace;text-anchor:end;fill:#000000">Prog ctrl</text>
  <text
     x="77.814453"
     y="171"
     id="text258"
     style="font-family:monospace;fill:#000000">8</text>
  <polygon
     points="110,195 105,190 105,200 "
     id="polygon260"
     style="fill:#000000"
     transform="translate(-35.185547,-29)" />
  <line
     x1="69.814453"
     y1="166"
     x2="64.814453"
     y2="166"
     id="line262"
     style="stroke:#000000;stroke-width:2" />
  <text
     x="63.814453"
     y="173"
     id="text264"
     style="font-family:monospace;text-anchor:end;fill:#000000">Prog ctrl</text>
  <text
     x="77.814453"
     y="193"
     id="text266"
     style="font-family:monospace;fill:#0000ff">9</text>
  <polygon
     points="110,217 105,212 105,222 "
     id="polygon268"
     style="fill:#0000ff"
     transform="translate(-35.185547,-29)" />
  <line
     x1="69.814453"
     y1="188"
     x2="64.814453"
     y2="188"
     id="line270"
     style="stroke:#0000ff;stroke-width:2" />
  <polygon
     points="95,217 100,212 100,222 "
     id="polygon272"
     style="fill:#0000ff"
     transform="translate(-35.185547,-29)" />
  <text
     x="58.814453"
     y="195"
     id="text276"
     style="font-family:monospace;text-anchor:end;fill:#0000ff">I/O<tspan
   dy="5"
   id="tspan274">B</tspan>
</text>
  <text
     x="77.814453"
     y="215"
     id="text278"
     style="font-family:monospace;fill:#0000ff">10</text>
  <polygon
     points="110,239 105,234 105,244 "
     id="polygon280"
     style="fill:#0000ff"
     transform="translate(-35.185547,-29)" />
  <line
     x1="69.814453"
     y1="210"
     x2="64.814453"
     y2="210"
     id="line282"
     style="stroke:#0000ff;stroke-width:2" />
  <polygon
     points="95,239 100,234 100,244 "
     id="polygon284"
     style="fill:#0000ff"
     transform="translate(-35.185547,-29)" />
  <text
     x="58.814453"
     y="217"
     id="text288"
     style="font-family:monospace;text-anchor:end;fill:#0000ff">I/O<tspan
   dy="5"
   id="tspan286">B</tspan>
</text>
  <text
     x="77.814453"
     y="237"
     id="text290"
     style="font-family:monospace;fill:#0000ff">11</text>
  <polygon
     points="110,261 105,256 105,266 "
     id="polygon292"
     style="fill:#0000ff"
     transform="translate(-35.185547,-29)" />
  <line
     x1="69.814453"
     y1="232"
     x2="64.814453"
     y2="232"
     id="line294"
     style="stroke:#0000ff;stroke-width:2" />
  <polygon
     points="95,261 100,256 100,266 "
     id="polygon296"
     style="fill:#0000ff"
     transform="translate(-35.185547,-29)" />
  <text
     x="58.814453"
     y="239"
     id="text300"
     style="font-family:monospace;text-anchor:end;fill:#0000ff">I/O<tspan
   dy="5"
   id="tspan298">B</tspan>
</text>
  <text
     x="77.814453"
     y="259"
     id="text302"
     style="font-family:monospace;fill:#0000ff">12</text>
  <polygon
     points="110,283 105,278 105,288 "
     id="polygon304"
     style="fill:#0000ff"
     transform="translate(-35.185547,-29)" />
  <line
     x1="69.814453"
     y1="254"
     x2="64.814453"
     y2="254"
     id="line306"
     style="stroke:#0000ff;stroke-width:2" />
  <polygon
     points="95,283 100,278 100,288 "
     id="polygon308"
     style="fill:#0000ff"
     transform="translate(-35.185547,-29)" />
  <text
     x="58.814453"
     y="261"
     id="text312"
     style="font-family:monospace;text-anchor:end;fill:#0000ff">I/O<tspan
   dy="5"
   id="tspan310">B</tspan>
</text>
  <text
     x="77.814453"
     y="281"
     id="text314"
     style="font-family:monospace;fill:#0000ff">13</text>
  <polygon
     points="110,305 105,300 105,310 "
     id="polygon316"
     style="fill:#0000ff"
     transform="translate(-35.185547,-29)" />
  <line
     x1="69.814453"
     y1="276"
     x2="64.814453"
     y2="276"
     id="line318"
     style="stroke:#0000ff;stroke-width:2" />
  <polygon
     points="95,305 100,300 100,310 "
     id="polygon320"
     style="fill:#0000ff"
     transform="translate(-35.185547,-29)" />
  <text
     x="58.814453"
     y="283"
     id="text324"
     style="font-family:monospace;text-anchor:end;fill:#0000ff">I/O<tspan
   dy="5"
   id="tspan322">B</tspan>
</text>
  <text
     x="77.814453"
     y="303"
     id="text326"
     style="font-family:monospace;fill:#0000ff">14</text>
  <polygon
     points="110,327 105,322 105,332 "
     id="polygon328"
     style="fill:#0000ff"
     transform="translate(-35.185547,-29)" />
  <line
     x1="69.814453"
     y1="298"
     x2="64.814453"
     y2="298"
     id="line330"
     style="stroke:#0000ff;stroke-width:2" />
  <polygon
     points="95,327 100,322 100,332 "
     id="polygon332"
     style="fill:#0000ff"
     transform="translate(-35.185547,-29)" />
  <text
     x="58.814453"
     y="305"
     id="text336"
     style="font-family:monospace;text-anchor:end;fill:#0000ff">I/O<tspan
   dy="5"
   id="tspan334">B</tspan>
</text>
  <text
     x="77.814453"
     y="325"
     id="text338"
     style="font-family:monospace;fill:#0000ff">15</text>
  <polygon
     points="110,349 105,344 105,354 "
     id="polygon340"
     style="fill:#0000ff"
     transform="translate(-35.185547,-29)" />
  <line
     x1="69.814453"
     y1="320"
     x2="64.814453"
     y2="320"
     id="line342"
     style="stroke:#0000ff;stroke-width:2" />
  <polygon
     points="95,349 100,344 100,354 "
     id="polygon344"
     style="fill:#0000ff"
     transform="translate(-35.185547,-29)" />
  <text
     x="58.814453"
     y="327"
     id="text348"
     style="font-family:monospace;text-anchor:end;fill:#0000ff">I/O<tspan
   dy="5"
   id="tspan346">B</tspan>
</text>
  <text
     x="77.814453"
     y="347"
     id="text350"
     style="font-family:monospace;fill:#0000ff">16</text>
  <polygon
     points="110,371 105,366 105,376 "
     id="polygon352"
     style="fill:#0000ff"
     transform="translate(-35.185547,-29)" />
  <line
     x1="69.814453"
     y1="342"
     x2="64.814453"
     y2="342"
     id="line354"
     style="stroke:#0000ff;stroke-width:2" />
  <polygon
     points="95,371 100,366 100,376 "
     id="polygon356"
     style="fill:#0000ff"
     transform="translate(-35.185547,-29)" />
  <text
     x="58.814453"
     y="349"
     id="text360"
     style="font-family:monospace;text-anchor:end;fill:#0000ff">I/O<tspan
   dy="5"
   id="tspan358">B</tspan>
</text>
</svg>
